<svg enable-background="new 0 0 32 32" height="30" viewBox="0 0 30 30" width="30" xmlns="http://www.w3.org/2000/svg"><path d="m7.5 8.76v-8.26h18v10.5l-.066.076c-.051-.352-.09-.721-.107-1.127l-.039-.949h-3.586l-.029.962c-.028.902-.14 1.672-.334 2.289-.169.539-.416.966-.754 1.303-.334.327-.769.578-1.319.759-.623.202-1.404.324-2.317.36l-.949.038v.789h-1v-3.61c-.898-1.966-4.155-3.033-7.5-3.13zm16 12.224.516-.891c.365-.635.792-1.193 1.281-1.672.49-.49 1.062-.911 1.719-1.266l.938-.531-.938-.516c-.656-.365-1.234-.792-1.734-1.281-.51-.49-.948-1.062-1.312-1.719l-.516-.938-.531.938c-.708 1.26-1.698 2.255-2.969 2.984l-.906.5.891.531c1.292.729 2.302 1.719 3.031 2.969zm-10.5 3.545v-11.529c0-.705-2.278-2-6-2s-6 1.295-6 2v12c0 .705 2.278 2 6 2 1.755 0 3.173-.292 4.199-.67z" fill="#fafafa"/><path d="m7.5.5h18v3h-18z" fill="#c8c6c4"/><path d="m26.5 22.5c.438-.115.771-.281 1-.5.219-.229.385-.562.5-1 .115.438.286.771.516 1 .219.219.547.385.984.5-.438.115-.766.286-.984.516-.23.218-.401.546-.516.984-.115-.438-.281-.766-.5-.984-.229-.23-.562-.401-1-.516m-2 4c.438-.115.771-.281 1-.5.219-.229.385-.562.5-1 .094.26.193.479.297.656.094.177.203.323.328.438.115.115.245.203.391.266.135.062.297.109.484.141-.438.115-.766.286-.984.516-.23.217-.401.545-.516.983-.115-.438-.281-.766-.5-.984-.229-.23-.562-.401-1-.516m-.422-16.5c.042 1.021.182 1.896.422 2.625.229.729.583 1.333 1.062 1.812.469.479 1.068.839 1.797 1.078.729.229 1.609.359 2.641.391v1.172c-1.031.042-1.911.182-2.641.422-.74.24-1.344.599-1.812 1.078-.479.469-.833 1.068-1.062 1.797-.24.729-.375 1.604-.406 2.625h-1.188c-.062-1.771-.443-3.115-1.141-4.031l-10.875 10.875c-.125.104-.26.156-.406.156-.125 0-.234-.042-.328-.125s-.141-.193-.141-.328c0-.167.062-.312.188-.438l10.859-10.859c-.469-.365-1.036-.641-1.703-.828s-1.448-.302-2.344-.344v-1.156c1.031-.042 1.917-.182 2.656-.422.729-.24 1.333-.594 1.812-1.062.479-.479.833-1.083 1.062-1.812s.359-1.604.391-2.625h1.157zm-.594 10.25c.281-.979.729-1.771 1.344-2.375.604-.615 1.396-1.073 2.375-1.375-.969-.281-1.75-.719-2.344-1.312-.604-.604-1.057-1.391-1.359-2.359-.573 1.875-1.823 3.099-3.75 3.672.979.302 1.771.76 2.375 1.375.604.603 1.057 1.395 1.359 2.374z" fill="#1e8bcd"/><path d="m11.199 26.33c-1.026.378-2.444.67-4.199.67-3.722 0-6-1.295-6-2v-10.461c1.223.874 3.449 1.461 6 1.461s4.777-.587 6-1.461v9.99l1-1v-10.529c0-1.657-3.134-3-7-3s-7 1.343-7 3v12c0 1.657 3.134 3 7 3 .986 0 1.924-.088 2.775-.246zm-4.199-15.33c3.722 0 6 1.295 6 2s-2.278 2-6 2-6-1.295-6-2 2.278-2 6-2zm6-1c.374.195.707.416 1 .656v-2.656h5v3h-4.627c.263.273.48.568.627.89v.11h4v2.385c.089-.024.183-.046.266-.073.273-.09.516-.197.734-.322v-1.99h1.405c.08-.302.142-.636.187-1h-1.592v-3h5v1h.288l.039.949c.037.901.158 1.67.365 2.301.083.263.185.498.307.711v-12.961h-18.999v8.75c.334 0 .668.013 1 .032v-.782h5zm6-3h-5v-3h5zm6 0h-5v-3h5zm-17-6h17v2h-17zm0 6v-3h5v3zm8 9h-1v-1h1z" fill="#3a3a38"/></svg>